<svg xmlns="http://www.w3.org/2000/svg" width="128" height="128" viewBox="0 0 128 128">
  <rect x="6" y="6" width="116" height="116" rx="18" fill="#efe6d2"/>
  <circle cx="88" cy="40" r="16" fill="#a83a2a" opacity="0.85"/>
  <path d="M6 100 L34 62 L48 78 L70 44 L96 84 L108 72 L122 92 L122 104 Q122 122 104 122 L24 122 Q6 122 6 104 Z" fill="#2b2520" opacity="0.85"/>
  <path d="M6 110 L40 86 L62 100 L86 80 L122 106 L122 108 Q122 122 104 122 L24 122 Q6 122 6 108 Z" fill="#2b2520"/>
  <rect x="6" y="6" width="116" height="116" rx="18" fill="none" stroke="#8c6d4f" stroke-width="4"/>
</svg>
